<svg xmlns="http://www.w3.org/2000/svg" width="123.003" height="18.004" viewBox="0 0 123.003 18.004"><g id="Group_10011" data-name="Group 10011" transform="translate(-1010 -958.997)"><path id="Union_2" data-name="Union 2" d="M8995.39,13051.3v-7.025l-.786.843a.688.688,0,0,1-.512.222.7.7,0,0,1-.476-.186.685.685,0,0,1-.036-.975l1.959-2.1a.693.693,0,0,1,.534-.22h.047a.694.694,0,0,1,.486.229l2.325,2.043a.69.69,0,0,1,.057.977.7.7,0,0,1-.982.058l-1.22-1.071v7.208a.7.7,0,0,1-1.4,0Zm6.7-2.465h-3.548a.692.692,0,1,1,0-1.383h3.51a3.483,3.483,0,0,0,1.256-.38,2.431,2.431,0,0,0,1.284-2.092,2.463,2.463,0,0,0-.747-2.222,2.126,2.126,0,0,0-.833-.419l-1.1-.181.634-.887a1.814,1.814,0,0,0-.2-2.1c-.883-1.154-2.867-.774-2.886-.77l-.683.137-.141-.668a3.51,3.51,0,0,0-.861-1.5,4,4,0,0,0-3.825-.877,3.856,3.856,0,0,0-3.206,2.468,4.786,4.786,0,0,0-.232,2.029l.106.689-.686.1a3.208,3.208,0,0,0-2.538,3.453,3.115,3.115,0,0,0,1.269,2.751,2.977,2.977,0,0,0,1.2.464h3.958a.692.692,0,1,1,0,1.384h-4.053a4.258,4.258,0,0,1-1.881-.694,4.416,4.416,0,0,1-1.887-3.886,4.638,4.638,0,0,1,1.833-4,4.824,4.824,0,0,1,1.261-.669,6.051,6.051,0,0,1,.316-2.009,5.173,5.173,0,0,1,4.279-3.431c2.722-.518,4.3.436,5.141,1.325a4.952,4.952,0,0,1,.97,1.5c.128-.01.269-.014.421-.014a3.957,3.957,0,0,1,3.237,1.376,3.18,3.18,0,0,1,.6,2.923,3.57,3.57,0,0,1,.684.441,4.191,4.191,0,0,1-.82,6.618,4.647,4.647,0,0,1-1.816.523Z" transform="translate(-7873 -12075.002)" fill="#e32362"></path><circle id="Ellipse_149" data-name="Ellipse 149" cx="1.5" cy="1.5" r="1.5" transform="translate(1010 967)" fill="none"></circle><path id="Path_25251" data-name="Path 25251" d="M-65.186,1.8h2.08L-63.12-8.481a.576.576,0,0,0-.352-.374H-68.54v1.78h3.354Zm9.675-8.225c-.022-1.978-1.113-2.52-2.183-2.512h-.022a2.391,2.391,0,0,0-1.838.835l-.029-.11a1.7,1.7,0,0,0-.322-.645h-2.271v1.794l1.384-.007.1.168-.667.872L-61.912,0h2.073l.5-6.145a4.2,4.2,0,0,1,.374-.5,1.015,1.015,0,0,1,.784-.461c.344.015.615.227.623.784l.1,4.541H-58.55V0h3.1l.007-1.655ZM-53.474.015h2.036a3.643,3.643,0,0,0,2.725-.923A3.622,3.622,0,0,0-47.9-3.545V-8.5a.518.518,0,0,0-.337-.359H-54.5v1.78h1l-.542.71Zm1.853-1.78-.447-5.31h2.146l.029,4.028A1.187,1.187,0,0,1-51.1-1.772Zm11.309-4.658c-.022-1.978-1.113-2.52-2.183-2.512h-.022a2.391,2.391,0,0,0-1.838.835l-.029-.11a1.7,1.7,0,0,0-.322-.645h-2.271v1.794l1.384-.007.1.168-.667.872L-46.714,0h2.073l.5-6.145a4.2,4.2,0,0,1,.374-.5,1.015,1.015,0,0,1,.784-.461c.344.015.615.227.623.784l.1,4.541h-1.084V0h3.1l.007-1.655ZM-29.29-8.5a.533.533,0,0,0-.337-.359H-35.94v1.78h1.2l-.513.732.081,4.563h-.989V0h2.988l.029-1.736-.117-5.339h1.9L-31.348,0h2.073ZM-28.271,0h2.8V-1.619L-26.5-4.065a.735.735,0,0,1,.352-1.011l1.1,2.051L-23.511,0h2.1l.015-.1-1.758-3.384,1.362-2.812a2.011,2.011,0,0,0,.234-.564l-.007-1.67a.5.5,0,0,0-.3-.33H-24.17l.029,1.809h.908v.029l-.835,1.765-1.941-3.6h-2.219V-8.8l1.274,2.241-.066.051A2.947,2.947,0,0,0-28.162-5.12a2.543,2.543,0,0,0,.132,1.75l.593,1.714h-.842Zm9.338,0h2.124l1.677-7.559-.029-.945a.5.5,0,0,0-.322-.352h-3.171v-1.406h-2.1v3.186h3.4L-18.933-.059ZM-8.145-8.855h-2.49v1.78h.806l-.007,4.167c0,.718-.073.864-.747,1.04l-.776.205.5-.615-.82-6.27a.448.448,0,0,0-.308-.308H-14.3v1.78h.769l.769,5.779-1.56.41V.894l4.3-1.062c1.846-.461,2.2-.952,2.212-2.776V-8.5A.533.533,0,0,0-8.145-8.855ZM-2.7,0h2.08L-.637-8.5a.533.533,0,0,0-.337-.359H-6.709v1.78H-2.7Zm-3.94,0h2.029V-5.7H-6.636Z" transform="translate(1101 971.997)" fill="#132242"></path></g></svg>