<svg xmlns="http://www.w3.org/2000/svg" width="150" height="175" viewBox="0 0 150 175"><g id="Group_6929" data-name="Group 6929" transform="translate(-4482 630)"><rect id="Rectangle_812" data-name="Rectangle 812" width="150" height="175" transform="translate(4482 -630)" fill="none"></rect><g id="Group_6928" data-name="Group 6928" transform="translate(0.381 -4.015)"><g id="Group_6927" data-name="Group 6927" transform="translate(4532 -572.985)"><path id="Path_3320" data-name="Path 3320" d="M-9616.217-2963.7h9.488s8.033-.386,8.64-8.893-5.8-9.639-5.8-9.639a7.547,7.547,0,0,0-.606-8.3c-3.14-4.355-9.622-2.937-9.622-2.937s-2.228-10.836-14.785-8.3-10.734,15.089-10.734,15.089-8.507,1.418-8.405,11.849,8.405,11.14,8.405,11.14h10.734" transform="translate(9648.048 3002.163)" fill="none" stroke="#132242" stroke-linecap="round" stroke-width="3"></path><line id="Line_70" data-name="Line 70" y1="25.001" transform="translate(25.233 22.475)" fill="none" stroke="#132242" stroke-linecap="round" stroke-width="3"></line><g id="Group_2173" data-name="Group 2173" transform="translate(19.867 22.471)"><path id="Path_3321" data-name="Path 3321" d="M-.042,6.522,5.223.835" transform="translate(0.042 -0.835)" fill="none" stroke="#132242" stroke-linecap="round" stroke-width="3"></path><path id="Path_3322" data-name="Path 3322" d="M6.5,6.522.086.835" transform="translate(5.256 -0.835)" fill="none" stroke="#132242" stroke-linecap="round" stroke-width="3"></path></g></g><path id="Path_25224" data-name="Path 25224" d="M-96.587-3.518a.333.333,0,0,1-.221-.066.385.385,0,0,1-.114-.161l-2.989-7.64q-.024-.084-.036-.12a.265.265,0,0,1-.012-.084.221.221,0,0,1,.078-.167.25.25,0,0,1,.173-.072h.968a.3.3,0,0,1,.221.078.563.563,0,0,1,.126.209l1.2,3.049a1.6,1.6,0,0,0,1.034-.586,1.986,1.986,0,0,0,.341-1.22v-1.232a.3.3,0,0,1,.078-.215.272.272,0,0,1,.209-.084h.837a.272.272,0,0,1,.209.084.3.3,0,0,1,.078.215v1.3A3.37,3.37,0,0,1-94.7-8.779a2.685,2.685,0,0,1-.8,1,3.332,3.332,0,0,1-1.2.574l1.267,3.24a.635.635,0,0,1,.06.2.221.221,0,0,1-.078.167.25.25,0,0,1-.173.072ZM-93.144-5a.277.277,0,0,1-.2-.084.277.277,0,0,1-.084-.2v-.693a.277.277,0,0,1,.084-.2.277.277,0,0,1,.2-.084h3.228V-8.839a1.83,1.83,0,0,0-.407-1.273,1.681,1.681,0,0,0-1.3-.448h-1.4a.277.277,0,0,1-.2-.084.277.277,0,0,1-.084-.2v-.693a.277.277,0,0,1,.084-.2.277.277,0,0,1,.2-.084h1.459a4.378,4.378,0,0,1,1.77.317,2.228,2.228,0,0,1,1.082.974,3.425,3.425,0,0,1,.365,1.674v2.595h.43a.277.277,0,0,1,.2.084.277.277,0,0,1,.084.2v.693a.277.277,0,0,1-.084.2.277.277,0,0,1-.2.084ZM-86.2-5a.277.277,0,0,1-.2-.084.277.277,0,0,1-.084-.2v-6.253a.277.277,0,0,1,.084-.2.277.277,0,0,1,.2-.084h.992a.277.277,0,0,1,.2.084.277.277,0,0,1,.084.2v6.253a.277.277,0,0,1-.084.2A.277.277,0,0,1-85.2-5Zm3.216,2.284a.277.277,0,0,1-.2-.084.277.277,0,0,1-.084-.2v-6.05a.277.277,0,0,1,.084-.2.277.277,0,0,1,.2-.084h.909a.272.272,0,0,1,.209.084.288.288,0,0,1,.078.2V-3a.288.288,0,0,1-.078.2.272.272,0,0,1-.209.084Zm2.571-2.152a.24.24,0,0,1-.215-.06.26.26,0,0,1-.1-.2v-.849a.332.332,0,0,1,.078-.215.469.469,0,0,1,.209-.143l.418-.167a3.23,3.23,0,0,0,.741-.424,1.727,1.727,0,0,0,.526-.693,2.839,2.839,0,0,0,.191-1.13,2.934,2.934,0,0,0-.149-1.04.97.97,0,0,0-.514-.55,2.4,2.4,0,0,0-.986-.167h-2.774a.277.277,0,0,1-.2-.084.277.277,0,0,1-.084-.2v-.753a.258.258,0,0,1,.084-.2.288.288,0,0,1,.2-.078h3.049A3.809,3.809,0,0,1-78.2-11.5a1.923,1.923,0,0,1,.921,1A4.539,4.539,0,0,1-77-8.767a4.017,4.017,0,0,1-.239,1.447A3.267,3.267,0,0,1-77.9-6.25a4.015,4.015,0,0,1-.939.747,5.557,5.557,0,0,1-1.082.478Zm8.095-5.691a.277.277,0,0,1-.2-.084.291.291,0,0,1-.084-.215v-.682a.277.277,0,0,1,.084-.2.277.277,0,0,1,.2-.084h2.941a4.249,4.249,0,0,1,1.752.317,2.216,2.216,0,0,1,1.058.968,3.352,3.352,0,0,1,.359,1.632v3.623a.277.277,0,0,1-.084.2.277.277,0,0,1-.2.084h-.945a.283.283,0,0,1-.209-.078.283.283,0,0,1-.078-.209V-8.851a1.8,1.8,0,0,0-.413-1.261,1.7,1.7,0,0,0-1.309-.448Zm1.291-.705h.407a.492.492,0,0,1,.365.108.281.281,0,0,1,.078.251q-.108.43-.173.807t-.1.759q-.03.383-.03.849l.06,3.2a.288.288,0,0,1-.078.2A.272.272,0,0,1-70.7-5l-2.08-.012a.277.277,0,0,1-.2-.084.277.277,0,0,1-.084-.2v-.646a.277.277,0,0,1,.084-.2.277.277,0,0,1,.2-.084l.945.012V-8.456q0-.442.018-.825a6.606,6.606,0,0,1,.084-.777,8.1,8.1,0,0,1,.2-.861.587.587,0,0,1,.155-.245A.514.514,0,0,1-71.024-11.266ZM-59.976-5a.324.324,0,0,1-.239-.084l-.132-.132-4.34-6.17a.358.358,0,0,1-.072-.191.243.243,0,0,1,.072-.179.243.243,0,0,1,.179-.072h.945a.341.341,0,0,1,.251.084,1.821,1.821,0,0,1,.132.143L-58.8-5.443a.452.452,0,0,1,.06.114.284.284,0,0,1,.012.078.234.234,0,0,1-.078.179A.25.25,0,0,1-58.984-5Zm-4.591,0a.277.277,0,0,1-.2-.084.291.291,0,0,1-.084-.215V-6.95a5.047,5.047,0,0,1,.114-1.112A2.539,2.539,0,0,1-64.31-9a3.482,3.482,0,0,1,.915-.831l.741,1.076a1.656,1.656,0,0,0-.538.556,1.943,1.943,0,0,0-.233.646,3.891,3.891,0,0,0-.054.628V-5.3a.291.291,0,0,1-.084.215.277.277,0,0,1-.2.084ZM-60.5-7.249l-.705-1.076a1.9,1.9,0,0,0,.693-.508,1.209,1.209,0,0,0,.245-.556,4.056,4.056,0,0,0,.042-.586v-1.554a.3.3,0,0,1,.078-.215.272.272,0,0,1,.209-.084h.837a.291.291,0,0,1,.215.084.291.291,0,0,1,.084.215v1.614a3.663,3.663,0,0,1-.126.957,2.311,2.311,0,0,1-.484.891A3.75,3.75,0,0,1-60.5-7.249Zm4.711,2.379a.223.223,0,0,1-.2-.06.26.26,0,0,1-.1-.2v-.849a.35.35,0,0,1,.072-.215.429.429,0,0,1,.2-.143l.418-.167a3.23,3.23,0,0,0,.741-.424,1.776,1.776,0,0,0,.532-.693,2.763,2.763,0,0,0,.2-1.13,2.831,2.831,0,0,0-.155-1.04,1,1,0,0,0-.514-.55,2.394,2.394,0,0,0-.992-.167h-.323a.277.277,0,0,1-.2-.084.277.277,0,0,1-.084-.2v-.753a.257.257,0,0,1,.084-.2.288.288,0,0,1,.2-.078h.61a3.777,3.777,0,0,1,1.716.329,1.95,1.95,0,0,1,.927,1,4.454,4.454,0,0,1,.287,1.728,3.929,3.929,0,0,1-.245,1.447,3.407,3.407,0,0,1-.658,1.07,3.858,3.858,0,0,1-.939.747,5.716,5.716,0,0,1-1.088.478Zm.227-5.644-1.722-.012a.288.288,0,0,1-.2-.078.257.257,0,0,1-.084-.2v-2.4a.277.277,0,0,1,.084-.2.277.277,0,0,1,.2-.084h.861a.272.272,0,0,1,.209.084.288.288,0,0,1,.078.2v1.375h.6ZM-51-4.331a.254.254,0,0,1-.233-.042.238.238,0,0,1-.1-.2v-.693a.368.368,0,0,1,.06-.209.315.315,0,0,1,.179-.126l2.571-.741a2.635,2.635,0,0,0,1.028-.508,1.7,1.7,0,0,0,.5-.753,3.109,3.109,0,0,0,.143-.974v-2.965a.283.283,0,0,1,.078-.209.283.283,0,0,1,.209-.078h.933a.272.272,0,0,1,.209.084.288.288,0,0,1,.078.2v3.42a2.722,2.722,0,0,1-.341,1.351,3.113,3.113,0,0,1-.974,1.046,4.546,4.546,0,0,1-1.518.652Zm1.554-.957-1.686-6.062a1.423,1.423,0,0,0-.042-.143.271.271,0,0,1-.018-.1.229.229,0,0,1,.072-.167.229.229,0,0,1,.167-.072h1.028a.247.247,0,0,1,.275.179l1.578,6.086ZM-39.028-5a.283.283,0,0,1-.209-.078.283.283,0,0,1-.078-.209V-8.851a1.8,1.8,0,0,0-.413-1.261,1.7,1.7,0,0,0-1.309-.448H-43.5a.277.277,0,0,1-.2-.084.291.291,0,0,1-.084-.215v-.682a.277.277,0,0,1,.084-.2.277.277,0,0,1,.2-.084h2.523a3.382,3.382,0,0,1,2.379.735,2.907,2.907,0,0,1,.789,2.23v3.575a.288.288,0,0,1-.078.2A.272.272,0,0,1-38.1-5ZM-43.5-5a.277.277,0,0,1-.2-.084.277.277,0,0,1-.084-.2V-9.054a.277.277,0,0,1,.084-.2.277.277,0,0,1,.2-.084h.945a.277.277,0,0,1,.2.084.277.277,0,0,1,.084.2v3.766a.277.277,0,0,1-.084.2.277.277,0,0,1-.2.084Z" transform="translate(4625.884 -502)" fill="#132242"></path></g></g></svg>